<?xml version="1.0" encoding="UTF-8"?>
<svg id="Layer_1" data-name="Layer 1" xmlns="http://www.w3.org/2000/svg" viewBox="0 0 1200 1200">
  <defs>
    <style>
      .cls-1 {
        fill: #ffa910;
      }
    </style>
  </defs>
  <g>
    <polygon class="cls-1" points="150.49 245.35 150.49 245.35 216.42 245.35 216.42 179.43 150.49 179.43 150.49 179.43 150.49 245.35"/>
    <polygon class="cls-1" points="75.93 38.93 10 38.93 10 104.86 10 319.92 10 385.85 75.93 385.85 356.91 385.85 356.91 319.92 356.91 253.99 290.99 253.99 290.99 319.92 75.93 319.92 75.93 104.86 290.99 104.86 290.99 170.79 356.91 170.79 356.91 104.86 356.91 38.93 75.93 38.93"/>
  </g>
  <g>
    <rect class="cls-1" x="983.58" y="179.43" width="65.93" height="65.93"/>
    <path class="cls-1" d="m1124.07,38.93h-280.99v346.91h346.91V38.93h-65.93Zm0,280.99h-215.06V104.86h215.06v215.06Z"/>
  </g>
  <g>
    <polygon class="cls-1" points="397.61 38.93 397.61 385.85 463.54 385.85 463.54 137.84 636.99 385.85 702.92 385.85 463.54 38.93 397.61 38.93"/>
    <polygon class="cls-1" points="736.46 38.93 736.46 38.98 633.01 188.96 666.61 237.72 736.46 137.9 736.46 385.85 802.39 385.85 802.39 38.93 736.46 38.93"/>
  </g>
  <g>
    <polygon class="cls-1" points="538.1 632.96 604.03 632.96 604.03 632.96 604.03 567.04 538.1 567.04 538.1 632.96 538.1 632.96"/>
    <polygon class="cls-1" points="463.54 426.54 397.61 426.54 397.61 492.47 397.61 707.53 397.61 773.46 463.54 773.46 744.52 773.46 744.52 707.53 744.52 641.6 678.6 641.6 678.6 707.53 463.54 707.53 463.54 492.47 678.6 492.47 678.6 558.4 744.52 558.4 744.52 492.47 744.52 426.54 463.54 426.54"/>
  </g>
  <g>
    <polygon class="cls-1" points="150.49 632.96 216.42 632.96 216.42 632.96 216.42 567.04 150.49 567.04 150.49 567.04 150.49 632.96 150.49 632.96 150.49 632.96"/>
    <path class="cls-1" d="m290.99,426.54H10v346.91h346.91v-346.91h-65.93Zm0,280.99H75.93v-215.06h215.06v215.06Z"/>
  </g>
  <g>
    <polygon class="cls-1" points="785.22 426.54 785.22 773.46 851.15 773.46 851.15 525.45 1024.6 773.46 1090.53 773.46 851.15 426.54 785.22 426.54"/>
    <polygon class="cls-1" points="1124.07 426.54 1124.07 426.59 1020.62 576.57 1054.22 625.33 1124.07 525.51 1124.07 773.46 1190 773.46 1190 426.54 1124.07 426.54"/>
  </g>
  <g>
    <rect class="cls-1" x="983.58" y="954.65" width="65.93" height="65.93"/>
    <polygon class="cls-1" points="909.01 814.15 843.09 814.15 843.09 880.08 843.09 1095.14 843.09 1161.07 909.01 1161.07 1190 1161.07 1190 1095.14 1190 1029.21 1124.07 1029.21 1124.07 1095.14 909.01 1095.14 909.01 880.08 1124.07 880.08 1124.07 946.01 1190 946.01 1190 880.08 1190 814.15 909.01 814.15"/>
  </g>
  <g>
    <polygon class="cls-1" points="665.98 1020.57 665.98 954.65 665.98 954.65 600.05 954.65 600.05 1020.57 665.98 1020.57 665.98 1020.57"/>
    <path class="cls-1" d="m740.54,814.15h-280.99v346.91h346.91v-346.91h-65.93Zm0,280.99h-215.06v-215.06h215.06v215.06Z"/>
  </g>
  <g>
    <polygon class="cls-1" points="10 814.15 10 1161.07 75.93 1161.07 75.93 913.06 249.38 1161.07 315.31 1161.07 75.93 814.15 10 814.15"/>
    <polygon class="cls-1" points="348.85 814.15 348.85 814.2 245.4 964.17 279 1012.94 348.85 913.12 348.85 1161.07 414.78 1161.07 414.78 814.15 348.85 814.15"/>
  </g>
</svg>
